<?xml version="1.0" encoding="UTF-8"?>
<svg width="800px" height="800px" viewBox="0 0 512 512" xmlns="http://www.w3.org/2000/svg">
  <path fill="#000000" d="M176 24c0-13.3-10.7-24-24-24s-24 10.7-24 24v64c-35.3 0-64 28.7-64 64H0v112c0 26.5 21.5 48 48 48h106c-11.4 37.9-20.4 50.9-32 64H32c-17.7 0-32 14.3-32 32s14.3 32 32 32h448c17.7 0 32-14.3 32-32s-14.3-32-32-32H389.9c-11.6-13.1-20.5-26.1-32-64h106c26.5 0 48-21.5 48-48V152h-64c0-35.3-28.7-64-64-64V24c0-13.3-10.7-24-24-24s-24 10.7-24 24v64h-96V24c0-13.3-10.7-24-24-24s-24 10.7-24 24v64h-16V24zM32 152h64v80H48c-8.8 0-16-7.2-16-16v-64zm448 64c0 8.8-7.2 16-16 16h-48v-80h64v64z"/>
</svg>