<?xml version="1.0" encoding="UTF-8"?>
<svg width="800px" height="800px" viewBox="0 0 512 512" xmlns="http://www.w3.org/2000/svg">
  <path fill="#000000" d="M0 96c0-35.35 28.65-64 64-64h384c35.3 0 64 28.65 64 64v320c0 35.3-28.7 64-64 64H64c-35.35 0-64-28.7-64-64V96zm129.9 116.5c2.6 8.2 11.3 12.7 19.5 10.2 8.2-2.6 12.7-11.3 10.2-19.5l-14.6-45.6 38.8-38.8 45.6 14.6c8.2 2.6 16.9-1.9 19.5-10.2 2.6-8.2-1.9-16.9-10.2-19.5l-58.3-18.7c-7.4-2.4-15.5.2-20.2 5.8l-51.1 51.1c-5.6 4.7-8.1 12.8-5.8 20.2l18.7 58.3 10.2-19.5-10.2 19.5-2.1-6.9zm34.8 116.8c-8.2-2.6-16.9 1.9-19.5 10.2-2.6 8.2 1.9 16.9 10.2 19.5l45.6 14.6v54.9l-45.6 14.6c-8.2 2.6-12.7 11.3-10.2 19.5 2.6 8.2 11.3 12.7 19.5 10.2l58.3-18.7c7.4-2.4 12.6-9.1 12.6-16.9V330.4c0-7.8-5.1-14.5-12.6-16.9l-58.3-18.7-10.2 19.5 10.2-19.5v.5zm152.3-136v54.9L271.4 263c-8.2 2.6-12.7 11.3-10.2 19.5 2.6 8.2 11.3 12.7 19.5 10.2l58.3-18.7c7.4-2.4 12.6-9.1 12.6-16.9V176.6c0-7.8-5.1-14.5-12.6-16.9l-58.3-18.7c-8.2-2.6-16.9 1.9-19.5 10.2-2.6 8.2 1.9 16.9 10.2 19.5l45.6 14.6z"/>
</svg>