<?xml version="1.0" encoding="UTF-8"?>
<svg width="800px" height="800px" viewBox="0 0 512 512" xmlns="http://www.w3.org/2000/svg">
  <path fill="#000000" d="M64 64c0-17.7-14.3-32-32-32S0 46.3 0 64v336c0 44.2 35.8 80 80 80h400c17.7 0 32-14.3 32-32s-14.3-32-32-32H80c-8.8 0-16-7.2-16-16V64zm96 288c-8.8 0-16-7.2-16-16V80c0-8.8 7.2-16 16-16h336c8.8 0 16 7.2 16 16v256c0 8.8-7.2 16-16 16H160zm272-64c0-8.8-7.2-16-16-16s-16 7.2-16 16v48H246.7c-7.8 0-15.1 3.8-19.6 10.2L208 368h-32c-8.8 0-16 7.2-16 16s7.2 16 16 16h37.3c7.8 0 15.1-3.8 19.6-10.2L252 368h164c8.8 0 16-7.2 16-16v-64zm-200-64c10 0 17.7-8.9 16-18.7-2.2-13.4-3.9-27-5-40.8-1.6-19.5-28.5-19.5-30.1 0-1.1 13.8-2.8 27.4-5 40.8-1.7 9.8 6 18.7 16 18.7h8.1zm-48-160c-20.5 0-33.6 23-23.2 40.8l32 54.8c6.3 10.8 12.1 11.2 16.4 11.2 4.3 0 10.1-.4 16.4-11.2l32-54.8c10.3-17.8-2.8-40.8-23.2-40.8h-50.3z"/>
</svg>