<?xml version="1.0" encoding="UTF-8"?>
<svg width="800px" height="800px" viewBox="0 0 24 24" xmlns="http://www.w3.org/2000/svg">
  <path d="M15 2c-2.7 0-5 2.3-5 5s2.3 5 5 5 5-2.3 5-5-2.3-5-5-5zm0 8c-1.7 0-3-1.3-3-3s1.3-3 3-3 3 1.3 3 3-1.3 3-3 3zM9 17c-2.7 0-5 2.3-5 5h2c0-1.7 1.3-3 3-3s3 1.3 3 3h2c0-2.7-2.3-5-5-5zM4 7c-1.1 0-2 .9-2 2s.9 2 2 2 2-.9 2-2-.9-2-2-2zm0 0c2.2 0 4-1.8 4-4h-2c0 1.1-.9 2-2 2s-2-.9-2-2H0c0 2.2 1.8 4 4 4zm16 10c-1.1 0-2 .9-2 2s.9 2 2 2 2-.9 2-2-.9-2-2-2zm0-2c-2.2 0-4 1.8-4 4h2c0-1.1.9-2 2-2s2 .9 2 2h2c0-2.2-1.8-4-4-4z"/>
</svg>